<?xml version="1.0" standalone="no"?>
<!DOCTYPE svg PUBLIC "-//W3C//DTD SVG 1.0//EN" "http://www.w3.org/TR/2001/REC-SVG-20010904/DTD/svg10.dtd">
<svg xmlns="http://www.w3.org/2000/svg" xmlns:xlink="http://www.w3.org/1999/xlink" id="body_1" width="1078" height="417">

<g transform="matrix(1.4993045 0 0 1.4993045 -0 0.09665774)">
	<g>
        <path d="M467.17 109.19L467.93 109.24L469.13 109.42L469.68 109.51L470.48 109.78L470.83 109.93L471.25 110.3L471.5 111L471.5 111.41L471.87 112.29L472.75 113.3L473.34 113.68L473.9 114.89L474.08 115.56L473.87 117.2L473.68 118.05L472.75 119.88L470.6 122.6L469.66 123.53L467.92 125L467.52 125.31L466.89 125.73L466.25 126L466.12 126L465.61 125.82L465.32 125.7L464.58 125.33L463.79 124.91L461.9 123.71L461.3 123.31L460.31 122.44L459.84 121.99L459.13 121.05L458.8 120.58L458.37 119.57L458.18 119.06L458.03 118L457.98 117.47L458.11 116.36L458.21 115.81L458.61 114.66L458.85 114.09L459.54 112.91L460.42 111.75L460.48 111.9L460.64 111.94L461.04 112L461.37 112L462.54 111.71L463.22 111.27L463.46 110.99L463.86 110.4L463.9 110.11L463.87 109.54L463.65 109.31L463.5 109.33L463.78 109.24L464.94 109.13L467.17 109.19zM461.61 33.01L462.61 33.25L463.15 33.41L464.42 33.9L465.73 34.45L468.67 36.02L470.12 36.84L472.61 38.57L473.17 38.99L474.03 39.76L474.83 40.75L474.96 40.99L475.24 41.73L475.38 42.14L475.67 43.11L476.43 46.33L476.63 47.43L476.51 49.54L476.38 50.56L475.71 52.31L475.31 53.12L474.2 54.26L472.18 55L471.69 55L470.61 55.31L469.34 56.06L469.16 56.24L468.69 56.39L468.43 56.42L467.81 56.25L467.47 56.12L466.66 55.63L466.23 55.34L465.2 54.52L464.77 54.16L463.95 53.21L463.54 52.71L462.78 51.53L462.04 50.29L460.81 47.26L460.25 45.69L459.48 42.27L459 37.1L459 36.2L459.07 34.94L459.13 34.39L459.39 33.71L459.54 33.42L460.07 33.14L461.25 33.01z" stroke="none" fill="#2E9E2E" fill-rule="nonzero" />
        <path d="M489.91 230L493.85 230.01L501.17 230.01L504.73 230.02L511.32 230.03L514.53 230.04L520.42 230.06L523.29 230.07L528.52 230.09L531.05 230.1L535.65 230.13L537.88 230.15L541.88 230.19L543.81 230.21L547.25 230.25L548.9 230.28L551.8 230.33L553.19 230.36L555.6 230.42L556.74 230.45L558.67 230.52L559.58 230.56L561.08 230.64L561.77 230.68L562.87 230.77L563.36 230.81L564.08 230.91L564.4 230.96L564.78 231.07L565 231.25L565 231.39L564.91 231.95L564.85 232.26L564.65 233.12L564.42 234.05L563.71 236.65L563.32 238.03L562.37 241.26L561.87 242.91L560.79 246.4L560.25 248.13L559.16 251.5L558.62 253.13L557.64 256L557.18 257.34L556.43 259.34L556.26 259.77L555.98 260.41L555.68 260.97L554.65 262.28L551.89 264.72L546.79 268.02L546.34 268.26L545.39 268.66L544.86 268.84L543.38 269.14L542.95 269.21L541.92 269.33L541.37 269.39L540.04 269.49L539.33 269.53L537.64 269.62L536.74 269.66L534.63 269.72L533.52 269.75L530.93 269.81L529.57 269.83L526.43 269.87L524.8 269.88L521.06 269.91L519.11 269.92L514.72 269.94L512.43 269.95L507.31 269.96L504.65 269.96L498.74 269.96L495.69 269.96L488.94 269.96L477.79 269.96L473.79 269.95L466.51 269.95L462.98 269.94L456.6 269.94L453.51 269.93L447.96 269.92L445.29 269.91L440.51 269.89L438.21 269.88L434.15 269.86L432.19 269.84L428.77 269.8L427.13 269.78L424.29 269.73L422.94 269.71L420.61 269.64L419.51 269.61L417.64 269.53L416.75 269.49L415.27 269.39L414.57 269.34L413.42 269.22L412.87 269.16L411.98 269.02L411.14 268.88L409.98 268.51L409.44 268.32L408.5 267.84L407.28 267.21L405 265.74L403.89 264.96L401.85 263.22L400.86 262.33L399.1 260.36L396.81 257.19L396.53 256.74L395.88 255.3L395.55 254.5L394.82 252.49L394.45 251.44L393.7 249.07L393.32 247.86L392.6 245.32L392.24 244.04L391.6 241.52L391.29 240.28L390.78 237.97L390.55 236.85L390.23 234.95L390.02 232.75L390 230L481.83 230L489.91 230zM456.87 232.09L453.34 232.1L446.49 232.11L443.36 232.11L437.3 232.12L434.54 232.13L429.22 232.15L426.82 232.17L422.2 232.19L420.13 232.21L416.15 232.24L414.38 232.27L411 232.31L409.52 232.34L406.7 232.39L405.47 232.42L403.15 232.48L402.17 232.52L400.31 232.6L399.53 232.64L398.09 232.72L397.5 232.77L396.42 232.87L396 232.93L395.24 233.04L394.96 233.11L394.11 233.37L393.98 233.53L393.3 235.53L393.28 237.42L393.47 238.56L393.98 240.95L394.42 242.24L395.42 244.86L396.08 246.16L397.44 249.43L397.75 250.47L397.85 250.91L398 251.73L398 252.02L398.31 253.38L398.75 253.62L399 253.46L399.51 252.96L399.71 252.48L400.04 251.4L400.06 250.69L400.24 250.03L400.52 250.07L400.74 250.34L401.24 251.02L401.57 251.61L402.29 252.96L402.74 253.89L404.29 256.78L405.28 258.21L405.85 258.77L407.07 259.8L407.86 260.28L409.6 261.22L410.78 261.76L413.93 263.06L415.78 263.6L416.78 263.75L418.87 263.95L420.21 263.96L421.6 263.95L422.41 263.92L424.11 263.86L425.1 263.81L428.46 263.7L430.35 263.69L431.06 263.71L432.3 263.78L432.62 263.84L433.04 263.97L432.89 264.07L432.29 264.62L432.25 264.97L432.41 265.12L432.85 265.43L433.26 265.57L434.21 265.84L434.88 265.96L436.36 266.2L437.29 266.31L439.3 266.52L440.52 266.62L443.08 266.81L444.58 266.9L447.71 267.06L449.5 267.14L451.82 267.22L453.32 267.26L456.53 267.33L458.43 267.36L462.4 267.41L464.62 267.43L469.19 267.47L471.66 267.49L476.69 267.51L479.32 267.51L484.66 267.52L487.39 267.51L498.45 267.48L503.86 267.43L510.24 267.37L514.13 267.33L515.91 267.31L519.35 267.27L520.92 267.25L523.94 267.21L525.3 267.19L527.94 267.14L529.12 267.12L531.39 267.07L532.41 267.04L534.36 266.98L535.22 266.95L536.88 266.88L537.61 266.84L540.26 266.68L541.27 266.58L543.09 266.37L543.78 266.24L545.01 265.96L545.49 265.79L546.39 265.43L546.8 265.22L549.83 263.27L551.48 261.74L552.16 260.81L553.43 258.84L553.96 257.63L554.95 255.06L555.39 253.5L557.8 245.66L559.58 240.73L560.6 238.29L561.51 236.15L561.68 235.56L561.68 235.3L561.61 234.79L561.46 234.57L561.07 234.15L560.71 233.97L559.9 233.62L559.3 233.47L557.97 233.19L557.08 233.07L555.13 232.84L553.9 232.75L551.25 232.58L549.63 232.52L546.18 232.39L544.12 232.34L539.77 232.26L537.23 232.22L534.62 232.2L533.22 232.18L530.35 232.16L528.81 232.15L525.67 232.13L523.99 232.13L520.56 232.12L518.73 232.11L515 232.1L513.02 232.1L508.98 232.1L506.84 232.1L502.48 232.09L500.18 232.09L495.48 232.09L493.01 232.09L487.96 232.09L485.31 232.09L479.91 232.09L477.07 232.09L464.55 232.09zM578.09 235.75L578.79 235.85L579.45 236.12L579.55 236.22L579.61 236.87L579.63 237.26L579.54 238.37L579.42 239.57L578.87 242.67L578.56 244.23L577.83 247.1L577.64 247.75L577.28 248.77L576.79 249.75L576.64 249.92L576 250.24L575.63 250.39L574.63 250.63L570.88 251L569.94 251L568.53 250.92L567.9 250.87L567.03 250.67L566.66 250.55L566.23 250.19L566.07 249.99L566 249.44L566 249.08L566.1 248.15L566.16 247.65L566.37 246.51L566.6 245.33L567.27 242.75L567.62 241.49L568.38 239.32L568.56 238.83L568.91 238.07L569.38 237.32L569.53 237.17L570.11 236.89L570.44 236.75L571.31 236.49L572.23 236.25L574.49 235.91L575.62 235.77L577.64 235.73zM573.53 238.14L572.61 238.39L572.12 238.7L570.75 240.28L569.97 241.84L569.69 242.72L569.23 244.52L569.16 245.36L569.15 246.95L569.37 247.51L569.92 248.31L570.4 248.47L571.48 248.64L572.1 248.51L573.4 248.12L574.03 247.73L575.26 246.83L575.75 246.21L576.66 244.63L577.01 243.53L577.07 242.99L577.11 241.91L577.03 241.41L576.8 240.43L576.59 240.01L576.13 239.22L575.83 238.92L575.17 238.4L574.79 238.26L573.98 238.08zM683.59 208.72L685.51 208.75L689 208.86L690.69 208.92L693.71 209.08L695.15 209.17L697.66 209.39L698.84 209.51L700.8 209.78L701.71 209.92L703.11 210.25L703.73 210.41L704.52 210.78L705 211.38L705 211.55L704.76 212.23L704.61 212.62L704.12 213.64L702 217.34L699 222.07L681.25 221.91L678.64 221.88L674.09 221.91L671.9 221.93L668 222.1L666.11 222.21L662.6 222.57L660.88 222.78L657.52 223.38L655.83 223.72L652.35 224.63L650.57 225.12L646.72 226.38L644.72 227.05L640.23 228.71L639.05 229.15L636.54 230.11L632.5 231.7L627.67 233.6L617.32 237.45L614.75 238.4L609.71 240.19L607.23 241.07L602.53 242.69L600.24 243.47L596.1 244.83L594.12 245.47L590.75 246.5L589.97 246.73L588.59 247.12L587.93 247.31L586.82 247.59L586.3 247.72L585.49 247.88L584.63 247.99L584.52 247.99L584.35 247.55L584.29 247.26L584.23 246.33L584.22 245.82L584.27 244.54L584.31 243.86L584.48 242.34L584.67 240.79L585.1 238.03L585.21 237.42L585.39 236.46L585.61 235.59L585.64 235.52L586.04 235.25L586.29 235.11L587.1 234.71L587.55 234.49L588.72 233.98L589.35 233.71L590.83 233.1L592.39 232.48L596.24 231.01L602.77 228.66L605.07 227.85L610.1 226.09L612.63 225.2L617.67 223.42L620.14 222.55L624.6 220.96L625.66 220.59L627.55 219.91L630 219.03L631.44 218.51L634.98 217.3L636.82 216.68L640.79 215.4L642.79 214.76L646.71 213.54L652 211.97L653.32 211.59L655.59 210.96L656.68 210.67L658.62 210.18L660.51 209.74L663.89 209.2L664.76 209.08L666.58 208.93L667.51 208.86L669.59 208.77L670.67 208.73L673.16 208.69L677.5 208.68L679.64 208.67zM539.46 241.27L539.82 241.35L540.11 241.46L540.95 241.68L541.73 241.84L542.2 241.92L544.24 242.24L545.28 242.34L548.11 242.78L548.84 242.95L549.1 243.04L549.54 243.2L549.61 243.28L549.86 243.8L549.9 244.27L549.92 245.31L549.83 245.87L549.6 247.01L549.4 247.4L549.22 247.4L548.8 247.29L548.44 247.06L547.62 246.46L547 245.98L544.76 244.61L543.32 244.03L542.87 244.02L541.35 243.56L540.33 242.9L539.98 242.48L539.41 241.73L539.22 241.42L539.23 241.35L539.32 241.25zM556.65 239.38L556.73 239.49L556.88 239.8L556.93 240.07L557 240.68L557 241.11L556.83 242.64L556.55 243.45L555.88 245.03L555.45 245.56L554.61 246.55L554.29 246.8L554.23 246.7L554.18 246.33L554.24 245.89L554.41 244.82L554.56 244L555.29 241.21L555.83 239.92L556.09 239.62L556.33 239.38L556.44 239.36zM671.08 211.11L670.1 211.14L666.47 211.32L664.83 211.53L661.59 212.04L659.79 212.45L657.94 212.89L656.91 213.16L654.77 213.74L653.55 214.08L649.28 215.33L645.97 216.36L644.12 216.96L640.31 218.2L638.24 218.9L634.01 220.33L631.77 221.11L622.53 224.35L617.66 226.12L607.85 229.74L603 231.59L601.3 232.19L599.97 232.63L599.26 232.85L596.38 233.72L595.2 234.02L591.73 235.26L589.85 236.34L589.15 236.98L587.91 238.34L587.55 239.11L587 240.7L587 241.56L587.01 242.65L587.09 243L587.34 243.56L587.65 243.68L588.4 243.82L589.06 243.77L590.6 243.6L591.75 243.43L595.64 242.67L596.78 242.37L597.24 242.22L598.08 241.93L598.33 241.79L599.45 241.31L600.5 240.9L601.14 240.68L603.91 239.74L605.33 239.32L606.53 238.94L607.54 238.6L608.14 238.4L610.77 237.47L612.37 236.9L615.71 235.67L617.54 234.99L621.3 233.59L623.22 232.85L627.08 231.38L628.95 230.66L632.61 229.23L634.27 228.57L637.44 227.31L638.73 226.77L639.97 226.26L640.5 226.04L641.49 225.61L641.88 225.43L642.78 225.08L643.58 224.8L644.07 224.65L646.22 224.01L647.53 223.65L650.29 222.93L651.79 222.57L654.85 221.85L656.38 221.52L659.7 220.83L661.71 220.45L662.64 220.29L666.23 219.76L668.04 219.62L671.73 219.41L673.92 219.4L676.18 219.4L677.46 219.42L680.12 219.47L681.63 219.51L686.75 219.62L689.58 219.64L690.75 219.61L692.91 219.53L693.78 219.44L695.36 219.24L695.97 219.08L697.07 218.73L697.47 218.5L698.18 217.98L698.42 217.65L698.84 216.93L698.96 216.5L699.17 215.56L699.23 215.01L699.24 213.64L699 213.02L698.68 212.8L697.89 212.43L697.21 212.28L695.65 212L694.5 211.85L693.24 211.71L692.19 211.62L691.58 211.58L688.89 211.42L687.31 211.35L680.47 211.11L677.05 211.09L673.28 211.08zM551.32 235.21L551.96 235.45L553.18 236.03L553.64 236.5L554.19 237.09L554.24 237.3L554.17 237.64L553.84 237.74L552.95 237.9L552.13 237.94L551.25 237.96L550.7 237.97L549.52 237.97L548.82 237.96L546.84 237.95L545.78 237.93L545.37 237.91L544.62 237.87L544.36 237.84L543.9 237.78L543.78 237.73L543.54 237.49L543.76 237.3L544.41 236.84L545 236.5L547.47 235.45L549.09 235.1L549.85 235.1zM313.52 107.7L314.94 108.04L317.39 109.3L317.95 109.66L318.9 110.51L319.98 111.96L320.05 112.09L320.18 112.63L320.25 112.94L320.37 113.8L320.5 114.74L320.7 117.42L320.79 118.86L320.92 122.29L321 127.88L321 129.8L321.07 133.35L321.11 135.05L321.2 137.03L320.97 135.2L320.82 133.68L320.54 130.44L320.38 128.46L320 123.93L319.78 121.47L319.68 120.48L319.47 118.64L319.36 117.91L319.12 116.57L318.99 116.05L318.7 115.08L318.53 114.69L318.16 113.97L317.93 113.66L316.89 112.5L316.11 111.81L314.1 110.29L312.77 109.57L312.11 109.34L310.81 108.99L310.19 108.95L308.94 108.96L308.35 109.1L307.19 109.48L306.64 109.8L305.58 110.53L305.09 111.02L304.15 112.1L303.73 112.77L302.94 114.2L302.6 115.04L302.12 116.55L301.85 117.81L301.74 118.64L301.54 120.45L301.46 121.64L301.31 124.24L301.25 125.92L301.2 127.66L301.18 128.64L301.14 130.67L301.12 131.81L301.09 134.17L301.08 135.48L301.05 138.18L301.04 139.68L301.03 142.76L301.02 144.45L301.02 147.95L301.02 149.86L301.01 153.79L301.01 155.93L301.02 160.32L301.02 162.71L301.08 206.28L304.44 209.64L306.14 211.23L306.93 211.75L308.47 212.61L309.24 212.78L310.79 212.95L311.65 212.79L313.41 212.31L314.44 211.85L316.19 210.93L317.15 210.24L317.55 209.81L318.28 208.88L318.57 208.27L319.1 206.94L319.31 206.07L319.68 204.19L319.82 202.99L320.06 200.4L320.15 198.79L320.3 195.35L320.36 193.25L320.41 191.09L320.43 189.91L320.48 187.47L320.5 186.14L320.56 182.44L320.6 180.19L320.62 179.16L320.72 175.3L320.78 173.7L320.92 170.72L321.01 169.5L321.21 167.23L321.35 166.29L321.64 164.54L321.83 163.8L322.25 162.39L322.51 161.75L323.7 159.32L324.57 157.92L326.63 155.41L328.26 154.04L329.17 153.52L331.05 152.57L332.06 152.26L334.09 151.75L335.13 151.65L337.21 151.58L338.24 151.71L340.28 152.08L341.24 152.44L343.13 153.26L343.99 153.85L345.63 155.15L346.32 155.97L347.37 157.46L347.96 158.6L348.21 159.28L348.66 160.73L348.85 161.62L349.18 163.51L349.31 164.66L349.54 167.1L349.62 168.58L349.75 171.71L349.79 173.57L349.84 177.5L349.85 179.82L349.84 184.68L349.81 187.5L349.78 192.37L349.78 195.14L349.8 196.33L349.84 198.56L349.87 199.51L349.95 201.29L350.01 202.04L350.13 203.44L350.22 204.04L350.4 205.16L350.51 205.64L351.03 207.38L351.4 208.15L352.56 210.05L353.47 211.09L353.98 211.49L355.04 212.22L355.61 212.47L356.78 212.88L357.4 212.97L358.66 213.06L359.31 212.98L360.62 212.75L361.29 212.51L362.62 211.95L363.28 211.55L364.59 210.65L365.23 210.08L368.5 207.16L368.5 181.33L368.5 176.9L368.5 174.21L368.49 172.99L368.49 170.64L368.48 169.58L368.46 167.53L368.45 166.61L368.4 163.2L368.36 161.85L368.26 159.36L368.18 158.39L368.02 156.6L367.9 155.9L367.65 154.6L367.49 154.05L366.73 152.09L366.16 151L363.3 146.32L361.24 143.77L360.1 142.75L357.74 140.88L356.41 140.16L353.64 138.87L352.07 138.41L346.26 137.34L342.21 137.17L340.21 137.34L336.26 137.86L334.43 138.37L330.91 139.56L329.42 140.39L326.93 141.73L325.57 142.36L325.02 142.52L324 142.72L323.59 142.63L322.85 142.31L323.42 142.09L326.08 140.64L327.57 139.65L330.29 138.17L331.64 137.5L334.35 136.59L335.73 136.2L338.75 135.76L344 135.54L345.59 135.54L348.06 135.66L349.21 135.75L351.13 136.1L352.06 136.32L353.88 137.01L356.97 138.54L358.49 139.36L361.16 141.36L362.43 142.42L364.59 144.88L365.61 146.16L367.26 149.09L369.18 154L369.31 154.44L369.54 155.74L369.65 156.45L369.84 158.24L369.93 159.19L370.08 161.4L370.15 162.55L370.27 165.09L370.37 167.71L370.48 173.64L370.51 176.67L370.48 182.96L370.45 186.1L370.28 192.16L370.23 193.63L370.11 196.42L370.05 197.78L369.9 200.3L369.82 201.52L369.64 203.7L369.54 204.74L369.33 206.49L369.22 207.31L368.98 208.57L368.6 209.81L368.08 210.81L366.96 212.3L366.37 212.97L364.96 213.9L364.21 214.29L362.34 214.74L358.82 214.97L357.71 214.96L355.84 214.79L354.97 214.66L353.52 214.18L352.85 213.88L351.77 212.96L351.28 212.43L350.53 210.96L350.19 210.15L349.71 208.01L349.5 206.85L349.25 203.94L349.15 202.37L349.07 198.55L349.06 197.54L349.07 195.32L349.11 191.69L349.14 189.57L349.14 185.53L349.13 183.55L349.05 179.83L349 178.01L348.84 174.64L348.75 173L348.52 170.02L348.4 168.58L348.09 166.02L347.93 164.79L347.56 162.69L347.36 161.7L346.93 160.1L346.2 158.3L345.64 157.28L344.16 155.68L343.38 154.96L341.57 153.96L340.63 153.53L338.59 153.1L337.55 152.96L335.4 153.09L334.32 153.23L332.17 153.91L331.11 154.32L329.09 155.53L328.1 156.2L326.32 157.93L324.03 161.1L323.44 162.15L322.64 164.05L322.46 164.56L322.18 165.77L322.05 166.41L321.84 168.01L321.74 168.88L321.58 171.06L321.51 172.24L321.38 175.18L321.32 176.76L321.21 180.65L321.18 181.68L321.12 183.97L321.03 187.73L321 189.04L320.94 191.45L320.91 192.62L320.86 194.75L320.8 196.8L320.69 200.15L320.63 201.7L320.5 204.17L320.43 205.31L320.26 207.06L320.18 207.86L319.96 209.06L319.84 209.6L319.55 210.4L318.33 212.11L318.02 212.42L317.15 212.98L316.69 213.24L315.56 213.7L314.4 214.12L311.68 214.63L310.31 214.82L307.72 214.77L307.11 214.72L306.05 214.5L305.54 214.37L304.75 213.98L304.21 213.65L303.07 212.36L302.51 211.65L301.52 209.98L301.07 209.15L300.52 207.62L300.42 207.27L300.35 206.68L300.48 206.04L300.63 205.79L300.57 205.22L300.02 204.51L299.93 204.46L299.78 203.68L299.71 203.18L299.58 201.53L299.51 200.59L299.4 198.06L299.35 196.69L299.26 193.31L299.22 191.51L299.15 187.29L299.11 185.07L299.07 180.03L299.04 177.41L299.02 171.55L299 161.88L299 158.94L299.01 153.57L299.01 150.97L299.03 146.22L299.04 143.93L299.08 139.77L299.1 137.76L299.15 134.14L299.18 132.39L299.27 129.28L299.31 127.78L299.43 125.12L299.49 123.84L299.64 121.6L299.72 120.53L299.92 118.66L300.02 117.77L300.26 116.24L300.38 115.51L300.67 114.27L300.98 113.09L301.76 111.43L302.18 110.69L303.22 109.66L305.13 108.44L305.73 108.12L307.05 107.7L307.73 107.52L309.16 107.35L310.61 107.24zM102.7 213.88L103.22 214.05L104.32 214.38L104.93 214.51L107.45 214.95L108.56 214.96L110.53 214.82L111.73 214.55L112.28 214.31L113.35 213.77L112.28 214.31L111.73 214.55L110.53 214.82L108.56 214.96L107.45 214.95L104.99 214.55L104.41 214.43L103.36 214.12L102.87 213.96L102.11 213.6zM113.36 213.76L113.58 213.59zM97.23 205.74L97.66 207.97L98.07 208.96L99.02 210.87L99.66 211.64L100.54 212.53L100.34 212.37L99.81 211.92L98.96 210.86L98.56 210.31L97.97 209.07L97.7 208.42L97.37 206.99L97.24 206.25L97.16 204.64L97.16 203.81L97.24 203.02zM113.2 158.84L112.51 160.64L112.12 161.65L110.48 165.91L109.57 168.26L107.7 173.08L106.76 175.5L104.89 180.3L104.02 182.5L101.55 189.01L100.06 193.11L99.44 194.9L98.85 196.63L98.6 197.41L98.13 198.89L97.94 199.52L97.59 200.7L97.47 201.16L97.45 201.26L97.47 201.08L97.92 199.09L98.89 195.91L99.02 195.53L99.4 194.5L99.6 193.94L100.11 192.59L100.37 191.87L100.99 190.24L101.31 189.39L102.02 187.53L102.75 185.62L104.42 181.28L105.27 179.05L107.1 174.36L108.01 172.01L109.85 167.32L110.75 165.01L112.46 160.69L113.28 158.6L113.4 158.31zM491.02 115.19L491.41 115.26L492.06 115.59L492.37 115.79L492.88 116.4L493.12 116.74L493.49 117.65L493.67 118.14L493.92 119.35L494.03 119.99L494.16 121.51L494.17 121.8L493.68 120.14L493.2 119.49L492.09 118.31L491.31 117.9L489.94 117.25L489.26 117.06L488.99 117.1L488.49 117.26L488.24 117.47L487.74 118L487.44 118.41L486.94 119.81L486.72 121.23L486.66 122.12L486.56 123.99L486.56 125.02L486.59 127.13L486.64 128.2L486.78 130.33L486.88 131.34L487.12 133.27L487.27 134.1L487.59 135.63L487.78 136.17L488.18 137.08L488.4 137.23L489.72 137.93L490.28 137.9L490.82 137.81L491.07 137.67L491.55 137.32L491.77 137.05L492.19 136.44L492.39 136.03L492.76 135.14L492.94 134.6L493.27 133.43L493.42 132.75L493.71 131.3L493.81 130.68L493.8 130.81L493.54 132.54L493.1 134.66L492.77 135.9L491.54 138.36L490.86 139.56L489.2 141.69L488.34 142.67L486.55 144.08L486.11 144.37L485.26 144.76L484.07 145L481.94 145L484.22 141.92L484.69 141.29L485.37 140.08L485.67 139.46L486.06 138.05L486.23 137.3L486.41 135.4L486.5 131.67L486.5 129.7L486.35 125.44L486.31 124.43L486.19 122.64L486 120.54L485.89 119.63L485.81 118.36L485.8 117.8L486.01 117.04L486.17 116.71L486.78 116.23L488.27 115.59L488.81 115.4L489.76 115.2L490.22 115.13zM143.29 50.83L140.89 50.96L139.72 51.18L137.39 51.72L136.26 52.15L134.05 53.13L132.99 53.77L130.93 55.17L129.97 56.03L127.55 57.98L126.24 58.71L125.58 58.81L124.23 58.84L123.4 58.62L121.58 58.02L120.35 57.5L115.81 56.31L112.7 56.13L111.14 56.33L108.03 56.91L106.52 57.45L103.54 58.7L102.14 59.55L99.41 61.4L98.19 62.52L95.85 64.89L94.87 66.24L93.04 69.06L92.36 70.6L91.16 73.78L90.85 75.47L90.46 76.42L89.99 76.94L89.64 77.15L88.86 77.55L88.33 77.71L87.18 78.01L86.45 78.14L83.02 79.04L80.84 79.94L79.82 80.53L77.83 81.78L76.91 82.52L75.13 84.09L74.33 84.98L72.81 86.82L72.15 87.84L70.9 89.92L70.4 91.04L69.48 93.32L69.14 94.53L68.57 96.98L68.43 98.25L68.23 101.23L68.31 102.89L68.5 103.71L69 105.39L69.43 106.4L69.9 107.45L70.19 108.04L70.8 109.28L71.17 110L73.44 113.81L75.1 116.01L76.01 116.95L77.87 118.72L78.88 119.43L80.94 120.76L82.05 121.26L84.33 122.14L85.55 122.42L88.03 122.87L89.36 122.94L92.06 122.95L93.5 122.8L96.42 122.38L97.97 122.01L100.05 121.55L101.23 121.37L101.75 121.37L102.76 121.44L103.23 121.58L104.16 121.96L104.63 122.29L105.59 123.05L106.12 123.6L107.22 124.82L107.85 125.62L109.19 127.37L109.99 128.47L111.67 130.82L112.68 132.25L114.15 134.33L114.83 135.26L116.12 137.02L116.66 137.72L117.63 138.99L117.96 139.39L118.5 140L118.55 140L119.29 139.56L120.28 138.86L120.97 138.36L122.48 137.25L123.37 136.58L125.22 135.17L126.21 134.4L129.31 132.06L131.18 130.7L132.05 130.11L135.36 127.96L136.96 127.13L140.17 125.59L141.98 124.92L143.83 124.27L144.85 123.94L146.97 123.29L148.15 122.95L151.5 121.98L153.33 121.45L154.08 121.24L155.45 120.83L155.99 120.67L156.97 120.37L157.34 120.26L157.99 120.05L158.21 119.97L158.6 119.82L158.72 119.77L159 119.58L159 119.51L158.8 118.81L158.49 117.8L158.27 117.08L157.77 115.52L157.47 114.59L156.84 112.65L156.5 111.6L155.53 108.51L154.96 106.6L154.73 105.77L154.32 104.24L154.2 103.68L154 102.72L154 102.53L153.32 100.81L152.28 99.84L151.54 99.47L149.94 98.83L149.02 98.68L147.12 98.5L146.14 98.63L139.33 99.66L135.3 100.47L133.48 100.95L129.92 101.97L128.24 102.58L124.92 103.87L123.28 104.64L120.38 105.94L118.59 106.71L117.82 107.01L116.4 107.56L115.89 107.73L115.02 108L114.85 108L114.28 107.76L114.3 107.39L114.48 107.11L114.95 106.51L115.33 106.14L116.19 105.35L116.74 104.91L119.24 103.05L120.79 102.07L124.06 100.12L125.78 99.26L129.99 97.34L132.49 96.42L133.82 96.09L136.58 95.5L138.31 95.26L140.1 95.02L141.13 94.91L143.28 94.69L144.51 94.57L155.92 93.5L160.48 89.03L163.67 85.16L165.27 82.4L165.82 80.95L166.74 78.02L166.95 76.53L167.19 73.52L167.06 72.02L166.64 69.03L166.18 67.57L165.09 64.68L164.3 63.3L162.56 60.61L161.45 59.36L159.06 56.94L157.63 55.87L154.16 53.65L151.78 52.49L150.57 52.07L148.15 51.34L146.93 51.13L144.5 50.83zM501.93 79.6L502.3 79.78L502.96 80.5L503.27 80.89L503.62 81.79L503.51 82.98L503.42 83.14L503.59 83.56L503.72 83.78L504.32 84.31L504.66 84.58L505.62 85.17L507.39 86.06L508.4 86.5L510.12 87.48L510.93 87.98L512.25 89.06L512.86 89.6L513.77 90.75L514.18 91.34L514.67 92.55L514.87 93.16L514.94 94.41L514.93 95.04L514.58 96.3L514.35 96.94L513.56 98.21L511.89 100.1L510.93 101L508.69 102.19L507.55 102.69L505.17 103.06L503.99 103.14L501.78 102.67L500.73 102.33L499 101L498.54 100.54L497.83 99.47L497.52 98.91L497.1 97.65L496.94 96.99L496.81 95.53L496.96 93.11L496.98 92.92L497.23 92.26L497.37 91.9L497.81 90.99L499.6 87.84L500.08 87.08L500.74 85.87L501.03 85.3L501.33 84.37L501.44 83.93L501.41 83.15L501.02 82.04L500.73 81.5L500.54 80.51L500.88 79.57L501.19 79.38zM490.86 73.9L490.98 73.87zM489.49 73.56L489.77 73.63L489.49 73.56L488.77 73.29L487.09 72.1L488.77 73.28zM490.6 56.26L491.82 58.09L492.53 58.94L493.96 60.55L494.62 61.11L495.25 61.61L495.53 61.76L496.05 62L496.25 62L496.68 61.71L496.68 61.28L496.51 61.01L496.53 60.48L497.05 60.47L497.53 60.65L498.44 61.28L498.44 61.73L498.11 61.93L497.85 62.39L497.9 62.85L498.03 63.15L498.36 63.78L498.63 64.15L499.23 64.92L499.62 65.35L501.34 66.89L501.81 67.12L499.92 66.62L499.63 66.5L499.03 66.52L498.73 66.58L498.05 67.01L497.7 67.27L496.91 68.14L495.53 69.96L495.12 70.54L495.47 70.04L498.21 66.09L495.36 63.57L493.23 61.83L492.18 61.23L491.68 61.21L490.97 61.31L491.28 61.18L491.95 61L492.31 61L492.74 60.81L492.9 60.68L492.94 60.24L492.91 59.99L492.55 59.33L491.58 58.08L491.19 57.64L490.38 56.18L489.52 53.92zM507.78 65.55L507.55 66.27L507.41 66.59L506.99 67.01L506.84 67.11L507.3 66.62L507.48 66.26L507.78 65.51zM489.49 51.33L489.38 51.58L489.37 51.61L489.38 51.58L489.49 51.33L489.92 50.97L490.94 50.52L489.92 50.97zM112.73 51.05L113.79 51.16L112.38 51.05zM188.09 187.44L187.6 186.19L186.57 183.58L186.01 182.14L184.84 179.18L184.22 177.61L181.65 171.08L180.31 167.67L177.61 160.8L176.31 157.5L172.5 147.83L171.3 144.77L170.73 143.33L169.63 140.52L169.12 139.23L168.13 136.73L167.7 135.62L166.87 133.52L166.52 132.64L165.88 131.01L165.64 130.39L165.21 129.31L165.09 129L164.01 126.49L163.38 125.45L163.01 125.16L162.22 124.73L161.65 124.66L160.39 124.6L159.48 124.63L155.35 125.08L152.42 125.68L150.89 126.13L147.78 127.11L146.18 127.73L142.96 129.05L141.33 129.82L138.08 131.45L136.46 132.37L133.23 134.27L131.65 135.31L128.53 137.46L127.03 138.61L124.08 140.96L122.69 142.2L120.07 144.78L118.68 146.5L118.07 147.53L116.95 149.57L116.96 149.55L117.63 147.76L117.91 146.97L118.15 145.87L118.21 145.38L118.03 144.7L117.34 143.87L117.14 143.7L116.24 142.73L115.73 142.16L114.35 140.54L113.61 139.67L111.92 137.61L109.22 134.26L102.57 125.87L95.53 126.53L94.12 126.66L91.51 126.77L90.24 126.8L87.88 126.7L86.73 126.61L84.59 126.27L83.54 126.07L81.57 125.49L80.6 125.16L78.75 124.31L77.84 123.86L76.07 122.73L75.19 122.13L73.46 120.72L70.87 118.26L70.26 117.63L69.22 116.53L68.73 115.99L67.9 115.03L67.11 114.09L66.02 112.42L65.53 111.59L64.84 109.8L64.01 106.53L63.78 105.45L63.49 103.6L63.38 102.72L63.3 101.17L63.85 97.15L64.14 96.19L64.45 94.45L64.5 94.06L64.51 93.43L64.4 92.83L64.26 92.61L64.36 92.25L65 92L65.31 92L65.62 91.72L65.53 91.04L65.43 90.89L65.39 90.38L65.39 90.1L65.52 89.39L65.7 88.63L66.49 86.72L66.94 85.73L68.14 83.66L70.2 80.84L70.45 80.55L71.19 79.9L71.59 79.56L72.6 78.84L73.66 78.11L76.36 76.56L77.77 75.8L80.81 74.37L80.97 74.31L80.84 74.4L80.18 74.88L79.96 75.08L79.6 75.45L79.53 75.58L79.46 75.82L79.55 75.89L79.79 75.99L80.03 75.98L81.58 75.69L82.57 75.28L82.97 75.01L83.67 74.46L83.82 74.18L83.99 73.65L83.79 73.45L83.43 73.35L85.24 72.64L85.48 72.56L86.05 72.1L86.34 71.83L86.95 71.05L88.6 68.03L89.05 66.92L90.05 65.18L90.3 64.82L90.74 64.32L91.28 64L91.57 64L91.84 63.82L91.73 63.39L91.57 63.24L91.55 62.78L91.6 62.52L92.04 61.74L92.33 61.3L93.33 60.07L95.56 57.55L95.88 57.2L96.82 56.48L97.34 56.11L98.61 55.36L99.95 54.62L103.21 53.24L104.87 52.6L106.12 52.24L105.5 52.54L104.61 52.97L104.33 53.13L103.88 53.4L103.82 53.48L103.81 53.58L103.97 53.57L104.4 53.51L104.78 53.41L108.25 52.8L110.73 52.56L111.92 52.54L114.2 52.54L115.12 52.63L115.99 52.75L116.34 52.83L116.98 53L117.19 53.11L118.55 53.5L119.27 53.38L119.42 53.12L119.41 52.76L119.18 52.51L118.96 52.38L118.82 52.32L119.38 52.47L120.45 52.85L122.19 53.22L123.03 53.33L124.63 53.08L125.45 52.87L127.33 51.89L127.83 51.59L128.96 50.84L130.9 49.47L132.28 48.47L132 48.75L132 49.07L132.09 49.26L132.26 49.29L132.66 49.31L132.95 49.26L134.36 48.93L135.25 48.56L136.85 48.06L138.12 47.79L138.81 47.69L141.61 47.41L142.79 47.48L144.63 47.52L145.57 47.46L145.9 47.39L146.45 47.22L146.59 47.09L146.75 46.8L146.69 46.62L145.82 45.94L144.75 45.68L144.04 45.64L142.53 45.62L141.67 45.68L139.92 45.85L139.03 46L137.25 46.34L136.43 46.56L135.92 46.7L135.94 46.69L137.67 46.02L141.23 45.43L143 45.26L146.55 45.7L151.71 47.53L152.48 47.93L154.19 48.56L156.25 48.99L156.73 49L157.49 49.31L158 50.06L158 50.35L158.27 50.64L158.92 50.55L159.15 50.41L159.81 50.57L160.17 50.72L161.02 51.4L161.46 51.79L162.43 52.89L162.93 53.48L163.96 54.91L164.99 56.39L166.94 59.93L169.16 65.3L169.6 66.76L170.23 69.52L170.49 70.87L170.75 73.43L170.83 74.68L170.71 77.08L170.61 78.26L170.11 80.52L169.81 81.64L168.93 83.8L168.43 84.88L167.14 86.98L166.45 88.02L164.75 90.09L161.74 93.18L156.73 97.87L159.47 109.68L160.22 112.93L162.09 119.79L162.55 121.41L163.42 124.24L163.63 124.9L164.02 126.05L164.55 127.5L164.69 127.86L165.1 128.91L165.33 129.49L165.9 130.97L166.21 131.75L166.94 133.61L167.32 134.57L168.18 136.76L168.62 137.89L169.59 140.37L170.09 141.65L171.17 144.38L172.26 147.17L174.68 153.32L175.91 156.46L178.51 163.08L179.82 166.41L182.48 173.16L183.79 176.51L186.37 183.05L189.99 192.26L188.94 189.61zM488.58 62.59L488.11 62.9L487.61 63.25L488.51 62.63z" stroke="none" fill="#C37348" fill-rule="nonzero" />
        <path d="M484.66 267.52L484.65 267.52L487.38 267.51L498.45 267.48L487.39 267.51L484.66 267.52zM444.19 266.87L443.08 266.81L442.8 266.79zM432.41 264.52L432.46 264.7L432.67 265.07L432.9 265.31L433.43 265.59L434.02 265.77L434.43 265.85L435.32 266.03L435.88 266.11L437.06 266.28L437.76 266.35L439.23 266.51L440.07 266.58L441.15 266.67L440.52 266.62L439.3 266.52L437.29 266.31L436.36 266.2L434.88 265.96L434.21 265.84L433.26 265.57L432.85 265.43L432.41 265.12L432.25 264.97L432.29 264.62L432.41 264.51zM431.9 259.18L432.74 259.34L433.23 259.46L435.4 260.05L436.5 260.44L437.82 260.92L438.49 261.21L438.72 261.33L439.11 261.58L439.19 261.69L439.29 261.91L439.22 262.01L439.02 262.22L438.79 262.33L438.27 262.55L437.89 262.66L437.05 262.9L436.5 263.04L435.32 263.31L434.61 263.47L433.26 263.84L432.99 263.96L432.62 263.84L432.3 263.78L431.06 263.71L430.35 263.69L428.74 263.7L429.72 263.54L430.48 263.34L431.9 262.9L432.46 262.61L435.14 261.21L432.32 260.19L431.34 259.78L430.89 259.54L430.77 259.44L430.6 259.26L430.64 259.2L430.79 259.1L431 259.09zM412.9 262.55L414.76 263.07L415.76 263.27L419.91 263.93L420.53 263.95L420.21 263.96L418.87 263.95L416.78 263.75L415.78 263.6L413.93 263.06L410.78 261.76L410.71 261.73zM407.3 259.94L407.07 259.8L407.04 259.78zM543.76 237.3L543.54 237.49L543.78 237.73L543.9 237.78L544.36 237.84L544.62 237.87L545.37 237.91L545.78 237.93L546.84 237.95L548.82 237.96L549.52 237.97L550.7 237.97L551.25 237.96L552.13 237.94L552.95 237.9L553.84 237.74L554.17 237.64L554.24 237.3L554.22 237.2L554.3 237.3L554.36 237.65L554.15 237.75L553.58 237.92L553.01 237.95L551.68 238L550.7 238L546.54 238.18L544.11 238.45L543.18 238.65L541.5 239.08L541.04 239.33L540.66 239.58L540.57 239.72L540.49 239.99L540.58 240.12L541.04 240.46L541.57 240.66L541.91 240.74L543.47 241L544.37 241L547.12 241.37L548.74 241.91L549.16 242.25L549.98 243.16L550.14 243.75L550.3 245.01L550.11 245.7L549.72 246.94L549.46 247.36L549.42 247.37L549.6 247.01L549.83 245.87L549.92 245.31L549.9 244.27L549.86 243.8L549.61 243.28L549.54 243.2L549.1 243.04L548.84 242.95L548.11 242.78L545.28 242.34L544.24 242.24L542.2 241.92L541.73 241.84L540.95 241.68L540.11 241.46L539.82 241.35L539.46 241.27L539.32 241.25L539.23 241.35L539.22 241.42L539.41 241.73L539.98 242.48L540.33 242.9L541.35 243.56L542.87 244.02L541.36 243.57L540.34 242.91L540 242.5L538.72 241.44L537.76 241L537.38 241L536.4 240.56L536 239.91L536 239.5L536.2 238.83L536.53 238.49L536.8 238.36L537.4 238.14L537.81 238.07L538.7 237.97L539.25 237.96L542.28 237.52L544.31 236.89L544.41 236.84zM463.87 109.54L463.9 110.11L463.86 110.4L463.46 110.99L463.22 111.27L462.54 111.71L461.37 112L461.04 112L460.64 111.94L460.48 111.9L460.41 111.71L460.42 111.6L460.69 111.22L460.86 111.01L461.48 110.38L461.92 109.94L462.78 109.4L463.65 109.31zM473.54 96.67L473.3 96.8L473.67 96.57zM460.68 73L462.05 73.96L463.18 74.42L463.68 74.48L467.4 75.07L469.24 75.55L469.85 75.85L470.87 76.48L471.1 76.86L471.38 77.66L471.25 78.13L471.42 80.19L472.06 81.56L472.52 82.1L473.51 83.03L474 83.18L474.48 83.26L474.69 83.2L475.11 83L475.27 82.77L475.66 82.28L475.83 82.14L475.86 82.18L475.88 82.31L475.85 82.47L475.75 82.87L475.65 83.18L475.7 84.72L476.17 85.73L476.57 86.06L477.45 87.28L477.35 88.08L476.96 88.55L476.55 89.17L476.47 89.5L476.53 89.63L476.71 89.86L476.9 89.96L477.36 90.12L477.7 90.19L478.38 90.27L478.65 90.22L479.1 90.07L479.04 90.23L476.89 93.32L476 94.33L474.42 95.9L474.08 96.23L473.71 96.53L474 95.87L474 95.44L473.71 94.52L473.27 94.33L473 94.5L472.29 95.21L472 95.8L472 96.06L472.06 96.33L471.26 95.74L470.77 95.38L469.61 94.49L469.01 94.02L467.71 92.97L467.05 92.43L465.52 91.15L464.74 90.48L463.11 89.06L462.3 88.35L460.77 86.98L458.79 85.15L454.67 81.23L457.59 76.62L457.98 75.99L458.68 74.96L459.01 74.48L459.65 73.72L460.28 73.02L460.57 72.88zM461.62 76.9L461.28 77.19L460.15 78.85L460.03 80.16L460.28 80.91L460.98 82.47L461.65 83.34L463.18 85.13L464.25 86.12L466.45 87.9L467.56 88.54L469.77 89.65L470.72 89.91L471.65 90.12L472.04 90.14L472.79 90.13L473.07 90.04L473.59 89.8L473.74 89.58L473.97 89.09L473.95 88.75L473.47 86.72L472.78 85.26L472.29 84.51L471.22 83.01L470.6 82.29L469.29 80.87L468.59 80.23L467.17 79.01L466.46 78.51L465.06 77.61L464.4 77.32L463.14 76.85L462.61 76.82zM464.38 72.23L464.94 72.31L466.27 72.57L468.64 73.14L469.59 73.38L471.06 73.9L471.74 74.18L472.86 74.93L473.41 75.35L474.42 76.5L476.07 78.89L476.63 79.79L477.56 81.4L478 82.18L478.66 83.58L478.95 84.25L479.34 85.48L479.51 86.07L479.63 87.14L479.56 86.85L479.28 85.81L479.07 85.21L478.04 82.66L477.24 81.12L476.06 79L475.28 77.79L474.89 77.27L473.27 75.42L472.32 74.77L470.28 73.64L468.98 73.26L467.63 72.9L466.87 72.76L465.26 72.48L464.35 72.37L462.57 72.17L462.87 72.14L463.32 72.13zM83.79 73.45L83.99 73.65L83.82 74.18L83.67 74.46L82.97 75.01L82.57 75.28L81.58 75.69L80.03 75.98L79.79 75.99L79.55 75.89L79.46 75.82L79.53 75.58L79.6 75.45L79.96 75.08L80.18 74.88L80.84 74.4L81.47 73.96L82.65 73.46L82.92 73.37L83.35 73.32zM494.33 50.24L496.39 50.61L497.44 50.85L499.6 51.62L500.48 52.06L500.47 52.28L500.66 52.71L500.85 53.03L501.28 53.72L501.57 54.14L502.19 55.01L502.56 55.49L503.82 56.99L504.39 57.48L505.46 58.26L505.85 58.37L506.51 58.38L506.61 58.08L506.65 57.89L506.82 58.23L507.28 59.3L507.8 61.61L507.84 64.73L507.79 64.48L507.58 64.34L507.09 64.17L506.74 64.27L505.99 64.6L505.54 64.97L504.04 65.69L502.97 65.82L502.56 65.66L501.6 65.6L501.47 66.06L501.66 66.55L502.21 67.31L501.34 66.89L499.62 65.35L499.23 64.92L498.63 64.15L498.36 63.78L498.03 63.15L497.9 62.85L497.85 62.39L498.11 61.93L498.44 61.73L498.44 61.28L497.53 60.65L497.05 60.47L496.53 60.48L496.51 61.01L496.68 61.28L496.68 61.71L496.25 62L496.05 62L495.7 61.84L495.94 61.36L495.85 60.46L495.69 59.93L495.33 58.86L495.09 58.43L494.59 57.67L494.34 57.58L493.81 57.12L493.45 56.58L493.28 56.22L492.64 54.58L492.46 53.62L492.07 52.05L491.79 51.3L491.62 51.07L491.26 50.69L491.04 50.63L490.73 50.61L490.94 50.52L491.64 50.3L493.4 50.22zM494.16 60.69L494.38 60.91L493.96 60.55L493.3 59.81zM489.51 53.9L489.49 53.84L489.42 53.57zM114.26 51.2L115.28 51.32L117.06 51.7L117.87 51.9L118.96 52.38L119.18 52.51L119.41 52.76L119.42 53.12L119.27 53.38L118.55 53.5L117.19 53.11L116.98 53L116.34 52.83L115.99 52.75L115.12 52.63L114.2 52.54L111.92 52.54L110.73 52.56L108.25 52.8L104.78 53.41L104.4 53.51L103.97 53.57L103.81 53.58L103.82 53.48L103.88 53.4L104.33 53.13L104.61 52.97L105.5 52.54L106.32 52.14L108.39 51.5L111.12 51.05L112.16 51.03zM489.7 51.16L489.43 51.61L489.37 51.89L489.32 53.01L489.25 52.5L489.23 52.13L489.38 51.58L489.49 51.33L489.92 50.97L490.04 50.91zM144.04 45.64L144.75 45.68L145.82 45.94L146.69 46.62L146.75 46.8L146.59 47.09L146.45 47.22L145.9 47.39L145.57 47.46L144.63 47.52L142.79 47.48L141.61 47.41L138.81 47.69L138.12 47.79L136.85 48.06L135.25 48.56L134.36 48.93L132.95 49.26L132.66 49.31L132.26 49.29L132.09 49.26L132 49.07L132 48.75L132.6 48.14L132.98 47.84L134.18 47.29L134.83 47.02L136.43 46.56L137.25 46.34L139.03 46L139.92 45.85L141.67 45.68L142.53 45.62zM400.52 250.07L400.74 250.33L401.23 251.02L401.56 251.61L402.29 252.95L402.74 253.88L404.27 256.72L405.25 258.15L405.8 258.7L406.45 259.27L405.85 258.77L405.28 258.21L404.29 256.78L402.74 253.89L402.29 252.96L401.57 251.61L401.24 251.02L400.74 250.34L400.52 250.07L400.24 250.03L400.06 250.69L400.24 250.03z" stroke="none" fill="#DA9F5B" fill-rule="nonzero" />
        <path d="M477.07 232.09L479.91 232.09L485.31 232.09L487.96 232.09L493.01 232.09L495.48 232.09L500.18 232.09L502.48 232.09L506.84 232.1L508.98 232.1L513.02 232.1L515 232.1L518.73 232.11L520.56 232.12L523.99 232.13L525.67 232.13L528.81 232.15L530.35 232.16L533.22 232.18L534.62 232.2L537.23 232.22L539.77 232.26L544.12 232.34L546.18 232.39L549.63 232.52L551.25 232.58L553.9 232.75L555.13 232.84L557.08 233.07L557.97 233.19L559.3 233.47L559.9 233.62L560.71 233.97L561.07 234.15L561.46 234.57L561.61 234.79L561.68 235.3L561.68 235.56L561.51 236.15L560.6 238.29L559.58 240.73L557.8 245.66L555.39 253.5L554.95 255.06L553.96 257.63L553.43 258.84L552.16 260.81L551.48 261.74L549.83 263.27L546.8 265.22L546.39 265.43L545.49 265.79L545.01 265.96L543.78 266.24L543.09 266.37L541.27 266.58L540.26 266.68L537.61 266.84L536.88 266.88L535.22 266.95L534.36 266.98L532.41 267.04L531.39 267.07L529.12 267.12L527.94 267.14L525.3 267.19L523.94 267.21L520.92 267.25L519.35 267.27L515.91 267.31L514.13 267.33L510.24 267.37L503.86 267.43L498.45 267.48L487.38 267.51L484.64 267.52L479.29 267.51L476.64 267.51L471.6 267.49L469.12 267.47L464.53 267.43L462.3 267.41L458.31 267.36L456.4 267.33L453.15 267.26L451.64 267.22L449.3 267.14L446.88 267.04L442.77 266.79L441.8 266.72L440.07 266.58L439.23 266.51L437.76 266.35L437.06 266.28L435.88 266.11L435.32 266.03L434.43 265.85L434.02 265.77L433.43 265.59L432.9 265.31L432.67 265.07L432.46 264.7L432.41 264.52L432.57 264.23L432.7 264.09L433.26 263.84L434.61 263.47L435.32 263.31L436.5 263.04L437.05 262.9L437.89 262.66L438.27 262.55L438.79 262.33L439.02 262.22L439.22 262.01L439.29 261.91L439.19 261.69L439.11 261.58L438.72 261.33L438.49 261.21L437.82 260.92L436.5 260.44L435.4 260.05L433.23 259.46L432.74 259.34L431.9 259.18L431 259.09L430.79 259.1L430.64 259.2L430.6 259.26L430.77 259.44L430.89 259.54L431.34 259.78L432.32 260.19L434.87 261.11L431.83 260.14L430.06 259.65L428.56 259.29L427.72 259.1L424.15 258.38L422.5 258.12L419.33 257.58L417.55 257.21L416.79 257.01L415.35 256.58L414.74 256.33L413.56 255.78L413.03 255.44L412.02 254.72L411.55 254.27L410.61 253.31L410.14 252.71L409.18 251.45L408.67 250.69L407.6 249.08L407 248.11L405.21 245.35L404.1 243.73L403.62 243.09L402.74 241.92L402.42 241.56L401.87 241L401.77 241L401.28 241.4L401.06 242.04L401.01 242.51L400.94 243.53L400.95 244.15L401 245.44L401.08 246.16L401.49 249.15L401.84 250.64L402.65 253.53L403.17 254.63L404.39 256.91L404.27 256.72L402.74 253.88L402.29 252.95L401.56 251.61L401.23 251.02L400.74 250.33L400.52 250.07L400.24 250.03L400.06 250.69L400.04 251.4L399.71 252.48L399.51 252.96L399 253.46L398.75 253.62L398.31 253.38L398 252.02L398 251.73L397.85 250.91L397.75 250.47L397.44 249.43L396.08 246.16L395.42 244.86L394.42 242.24L393.98 240.95L393.47 238.56L393.28 237.42L393.3 235.53L393.98 233.53L394.11 233.37L394.96 233.11L395.24 233.04L396 232.93L396.42 232.87L397.5 232.77L398.09 232.72L399.53 232.64L400.31 232.6L402.17 232.52L403.15 232.48L405.47 232.42L406.7 232.39L409.52 232.34L411 232.31L414.38 232.27L416.15 232.24L420.13 232.21L422.2 232.19L426.82 232.17L429.22 232.15L434.54 232.13L437.3 232.12L443.36 232.11L446.49 232.11L453.34 232.1L456.87 232.09L464.55 232.09L477.07 232.09zM431.9 262.9L430.48 263.34L429.72 263.54L427.97 263.82L427.02 263.94L427.98 263.82L429.72 263.54L430.48 263.34L431.91 262.89zM416.02 263.31L415.76 263.27zM412.9 262.55L414.76 263.07L415.72 263.26L414.76 263.07L412.9 262.55zM410.43 261.62L410.42 261.61zM407.79 260.24L409.38 261.13L409.35 261.12L407.72 260.2L407.09 259.81zM407.05 259.79L406.97 259.74L406.44 259.27zM405.29 258.19L405.25 258.15L404.95 257.72zM553.58 237.92L554.15 237.75L554.36 237.65L554.3 237.3L553.64 236.5L553.18 236.03L551.96 235.45L551.32 235.21L549.85 235.1L549.09 235.1L547.47 235.45L545 236.5L544.31 236.89L542.28 237.52L539.25 237.96L538.7 237.97L537.81 238.07L537.4 238.14L536.8 238.36L536.53 238.49L536.2 238.83L536 239.5L536 239.91L536.4 240.56L537.38 241L537.76 241L538.72 241.44L540 242.5L540.34 242.91L541.36 243.57L542.87 244.02L543.32 244.03L544.76 244.6L547 245.97L547.62 246.45L548.45 247.05L548.81 247.29L549.26 247.38L549.46 247.36L549.72 246.94L550.11 245.7L550.26 245.15L550.12 246L550.2 247.09L550.36 247.5L550.72 248.29L550.92 248.56L551.3 249L551.44 249L551.8 248.77L552.09 248.42L552.27 248.15L553.01 246.89L553.41 246.06L554.2 244.29L554.55 243.37L555.19 241.54L555.38 240.75L555.67 239.17L555.59 238.53L555.32 238.36L554.61 238.09L553.94 238.05L553.2 238.01L552.74 238.01L551.75 238L551.68 238L553.01 237.95zM574.79 238.26L575.17 238.4L575.83 238.92L576.13 239.22L576.59 240.01L576.8 240.43L577.03 241.41L577.11 241.91L577.07 242.99L577.01 243.53L576.66 244.63L575.75 246.21L575.26 246.83L574.03 247.73L573.4 248.12L572.1 248.51L571.48 248.64L570.4 248.47L569.92 248.31L569.37 247.51L569.15 246.95L569.16 245.36L569.23 244.52L569.69 242.72L569.97 241.84L570.75 240.28L572.12 238.7L572.61 238.39L573.53 238.14L573.98 238.08zM556.33 239.38L556.09 239.62L555.83 239.92L555.29 241.21L554.56 244L554.41 244.82L554.24 245.89L554.18 246.33L554.23 246.7L554.29 246.8L554.61 246.55L555.45 245.56L555.88 245.03L556.55 243.45L556.83 242.64L557 241.11L557 240.68L556.93 240.07L556.88 239.8L556.73 239.49L556.65 239.38L556.44 239.36zM549.01 242.06L550.01 242.76L550.25 243.18L550.53 244.05L550.36 244.52L550.29 244.95L550.14 243.75L549.98 243.16L549.16 242.25L548.74 241.91zM677.05 211.09L680.47 211.11L687.31 211.35L688.89 211.42L691.58 211.58L692.19 211.62L693.24 211.71L694.5 211.85L695.65 212L697.21 212.28L697.89 212.43L698.68 212.8L699 213.02L699.24 213.64L699.23 215.01L699.17 215.56L698.96 216.5L698.84 216.93L698.42 217.65L698.18 217.98L697.47 218.5L697.07 218.73L695.97 219.08L695.36 219.24L693.78 219.44L692.91 219.53L690.75 219.61L689.58 219.64L686.75 219.62L681.63 219.51L680.12 219.47L677.46 219.42L676.18 219.4L673.92 219.4L671.73 219.41L668.04 219.62L666.23 219.76L662.64 220.29L661.71 220.45L659.7 220.83L656.38 221.52L654.85 221.85L651.79 222.57L650.29 222.93L647.53 223.65L646.22 224.01L644.07 224.65L643.58 224.8L642.78 225.08L641.88 225.43L641.49 225.61L640.5 226.04L639.97 226.26L638.73 226.77L637.44 227.31L634.27 228.57L632.61 229.23L628.95 230.66L627.08 231.38L623.22 232.85L621.3 233.59L617.54 234.99L615.71 235.67L612.37 236.9L610.77 237.47L608.14 238.4L607.54 238.6L606.53 238.94L605.33 239.32L603.91 239.74L601.14 240.68L600.5 240.9L599.45 241.31L598.33 241.79L598.08 241.93L597.24 242.22L596.78 242.37L595.64 242.67L591.75 243.43L590.6 243.6L589.06 243.77L588.4 243.82L587.65 243.68L587.34 243.56L587.09 243L587.01 242.65L587 241.56L587 240.7L587.55 239.11L587.91 238.34L589.15 236.98L589.85 236.34L591.73 235.26L595.2 234.02L596.38 233.72L599.26 232.85L599.97 232.63L601.3 232.19L603 231.59L607.85 229.74L617.66 226.12L622.53 224.35L631.77 221.11L634.01 220.33L638.24 218.9L640.31 218.2L644.12 216.96L645.97 216.36L649.28 215.33L653.55 214.08L654.77 213.74L656.91 213.16L657.94 212.89L659.79 212.45L661.59 212.04L664.83 211.53L666.47 211.32L670.1 211.14L671.08 211.11L673.28 211.08zM546.89 241.29L548.44 241.74L548.74 241.91L547.12 241.37L545.23 241.11zM540.54 240.07L540.49 239.99zM310.81 108.99L312.11 109.34L312.77 109.57L314.1 110.29L316.11 111.81L316.89 112.5L317.93 113.66L318.16 113.97L318.53 114.69L318.7 115.08L318.99 116.05L319.12 116.57L319.36 117.91L319.47 118.64L319.68 120.48L319.78 121.47L320 123.93L320.38 128.46L320.54 130.44L320.82 133.68L320.97 135.2L321.27 137.58L321.43 138.68L321.82 140.29L322.03 141.01L322.56 141.93L322.85 142.31L323.59 142.63L324 142.72L325.02 142.52L325.57 142.36L326.93 141.73L329.42 140.39L330.91 139.56L334.43 138.37L336.26 137.86L340.21 137.34L342.21 137.17L346.26 137.34L352.07 138.41L353.64 138.87L356.41 140.16L357.74 140.88L360.1 142.75L361.24 143.77L363.3 146.32L366.16 151L366.73 152.09L367.49 154.05L367.65 154.6L367.9 155.9L368.02 156.6L368.18 158.39L368.26 159.36L368.36 161.85L368.4 163.2L368.45 166.61L368.46 167.53L368.48 169.58L368.49 170.64L368.49 172.99L368.5 174.21L368.5 176.9L368.5 181.33L368.5 207.16L365.23 210.08L364.59 210.65L363.28 211.55L362.62 211.95L361.29 212.51L360.62 212.75L359.31 212.98L358.66 213.06L357.4 212.97L356.78 212.88L355.61 212.47L355.04 212.22L353.98 211.49L353.47 211.09L352.56 210.05L351.4 208.15L351.03 207.38L350.51 205.64L350.4 205.16L350.22 204.04L350.13 203.44L350.01 202.04L349.95 201.29L349.87 199.51L349.84 198.56L349.8 196.33L349.78 195.14L349.78 192.37L349.81 187.5L349.84 184.68L349.85 179.82L349.84 177.5L349.79 173.57L349.75 171.71L349.62 168.58L349.54 167.1L349.31 164.66L349.18 163.51L348.85 161.62L348.66 160.73L348.21 159.28L347.96 158.6L347.37 157.46L346.32 155.97L345.63 155.15L343.99 153.85L343.13 153.26L341.24 152.44L340.28 152.08L338.24 151.71L337.21 151.58L335.13 151.65L334.09 151.75L332.06 152.26L331.05 152.57L329.17 153.52L328.26 154.04L326.63 155.41L324.57 157.92L323.7 159.32L322.51 161.75L322.25 162.39L321.83 163.8L321.64 164.54L321.35 166.29L321.21 167.23L321.01 169.5L320.92 170.72L320.78 173.7L320.72 175.3L320.62 179.16L320.6 180.19L320.56 182.44L320.5 186.14L320.48 187.47L320.43 189.91L320.41 191.09L320.36 193.25L320.3 195.35L320.15 198.79L320.06 200.4L319.82 202.99L319.68 204.19L319.31 206.07L319.1 206.94L318.57 208.27L318.28 208.88L317.55 209.81L317.15 210.24L316.19 210.93L314.44 211.85L313.41 212.31L311.65 212.79L310.79 212.95L309.24 212.78L308.47 212.61L306.93 211.75L306.14 211.23L304.44 209.64L301.08 206.28L301.02 162.71L301.02 160.32L301.01 155.93L301.01 153.79L301.02 149.86L301.02 147.95L301.02 144.45L301.03 142.76L301.04 139.68L301.05 138.18L301.08 135.48L301.09 134.17L301.12 131.81L301.14 130.67L301.18 128.64L301.2 127.66L301.25 125.92L301.31 124.24L301.46 121.64L301.54 120.45L301.74 118.64L301.85 117.81L302.12 116.55L302.6 115.04L302.94 114.2L303.73 112.77L304.15 112.1L305.09 111.02L305.58 110.53L306.64 109.8L307.19 109.48L308.35 109.1L308.94 108.96L310.19 108.95zM489.94 117.25L491.31 117.9L492.09 118.31L493.2 119.49L493.68 120.14L494.21 121.93L494.41 122.92L494.41 125.5L494.38 126.2L494.22 127.79L493.85 130.46L493.71 131.3L493.42 132.75L493.27 133.43L492.94 134.6L492.76 135.14L492.39 136.03L492.19 136.44L491.77 137.05L491.55 137.32L491.07 137.67L490.82 137.81L490.28 137.9L489.72 137.93L488.4 137.23L488.18 137.08L487.78 136.17L487.59 135.63L487.27 134.1L487.12 133.27L486.88 131.34L486.78 130.33L486.64 128.2L486.59 127.13L486.56 125.02L486.56 123.99L486.66 122.12L486.72 121.23L486.94 119.81L487.44 118.41L487.74 118L488.24 117.47L488.49 117.26L488.99 117.1L489.26 117.06zM463.14 76.85L464.4 77.32L465.06 77.61L466.46 78.51L467.17 79.01L468.59 80.23L469.29 80.87L470.6 82.29L471.22 83.01L472.29 84.51L472.78 85.26L473.47 86.72L473.95 88.75L473.97 89.09L473.74 89.58L473.59 89.8L473.07 90.04L472.79 90.13L472.04 90.14L471.65 90.12L470.72 89.91L469.77 89.65L467.56 88.54L466.45 87.9L464.25 86.12L463.18 85.13L461.65 83.34L460.98 82.47L460.28 80.91L460.03 80.16L460.15 78.85L461.28 77.19L461.62 76.9L462.61 76.82zM546.74 238.17L544.21 238.44L543.24 238.64L542.62 238.79L543.18 238.65L544.11 238.45L546.54 238.18L550.7 238L551.14 238z" stroke="none" fill="#EA6F20" fill-rule="nonzero" />
        <path d="M402.42 241.56L402.74 241.92L403.62 243.09L404.1 243.73L405.21 245.35L407 248.11L407.6 249.08L408.67 250.69L409.18 251.45L410.14 252.71L410.61 253.31L411.55 254.27L412.02 254.72L413.03 255.44L413.56 255.78L414.74 256.33L415.35 256.58L416.79 257.01L417.55 257.21L419.33 257.58L422.5 258.12L424.15 258.38L427.72 259.1L428.56 259.29L430.06 259.65L431.83 260.14L435.16 261.21L432.46 262.6L431.91 262.89L430.48 263.34L429.72 263.54L427.98 263.82L426.17 264.05L422.01 264.02L419.91 263.93L415.76 263.27L414.76 263.07L412.9 262.55L412 262.27L410.42 261.61L409.38 261.13L407.79 260.24L407.05 259.79L405.9 258.81L405.37 258.29L404.46 257.04L403.17 254.63L402.65 253.53L401.84 250.64L401.49 249.15L401.08 246.16L401 245.44L400.95 244.15L400.94 243.53L401.01 242.51L401.06 242.04L401.28 241.4L401.77 241L401.87 241L402.42 241.56zM552.74 238.01L553.2 238.01L553.94 238.05L554.61 238.09L555.32 238.36L555.59 238.53L555.67 239.17L555.38 240.75L555.19 241.54L554.55 243.37L554.2 244.29L553.41 246.06L553.01 246.89L552.27 248.15L552.09 248.42L551.8 248.77L551.44 249L551.3 249L550.92 248.56L550.72 248.29L550.36 247.5L550.2 247.09L550.12 246L550.36 244.52L550.53 244.05L550.25 243.18L550.01 242.76L549.01 242.06L548.44 241.74L546.89 241.29L544.12 241L543.3 241L541.84 240.74L541.52 240.66L541.02 240.46L540.58 240.12L540.49 239.98L540.57 239.71L540.65 239.57L541.05 239.32L541.52 239.07L543.24 238.64L544.21 238.44L546.74 238.17L551.14 238L551.75 238zM136.96 127.13L135.36 127.96L132.05 130.11L131.18 130.7L129.31 132.06L126.21 134.4L125.22 135.17L123.37 136.58L122.48 137.25L120.97 138.36L120.28 138.86L119.29 139.56L118.55 140L118.5 140L117.96 139.39L117.63 138.99L116.66 137.72L116.12 137.02L114.83 135.26L114.15 134.33L112.68 132.25L111.67 130.82L110.25 128.84L110.53 129.15L111.83 130.62L112.44 131.3L113.63 132.61L114.13 133.14L116.17 135.17L117.05 135.87L117.89 136.5L118.21 136.7L118.8 137L118.97 137L119.86 136.74L120.7 136.33L121.21 136.03L123.42 134.65L124.58 133.81L126.84 132.11L127.66 131.38L128.4 130.69L128.63 130.41L129 129.91L129 129.77L129.24 129.29L129.59 129.25L129.82 129.39L130.55 129.39L131.4 129.2L131.95 129.03L133.13 128.62L133.81 128.36L135.2 127.78L135.92 127.44L138.42 126.36L139.22 126.05zM157.77 115.52L158.27 117.08L158.49 117.8L158.8 118.81L159 119.51L159 119.58L158.72 119.77L158.6 119.82L158.21 119.97L157.99 120.05L157.34 120.26L156.97 120.37L155.99 120.67L155.45 120.83L154.08 121.24L153.33 121.45L151.5 121.98L148.15 122.95L147.22 123.22L151.39 121.53L154.01 119.95L155 119.09L155.94 118.22L156.3 117.79L156.97 116.92L157.18 116.5L157.54 115.67L157.58 115.28L157.58 114.94zM85.59 122.43L88.1 122.87L89.43 122.93L92.16 122.93L93.61 122.77L96.57 122.34L96.89 122.27L96.42 122.38L93.5 122.8L92.06 122.95L89.36 122.94L88.03 122.87L85.55 122.42L84.45 122.17zM104.95 122.54L104.63 122.29L104.16 121.96L103.23 121.58L102.76 121.44L101.75 121.37L101.23 121.37L100.05 121.55L97.97 122.01L98.13 121.97L103.43 120.7zM84.37 122.15L84.33 122.14L83.08 121.66zM152.28 99.84L153.32 100.81L154 102.53L154 102.72L154.2 103.68L154.32 104.24L154.73 105.77L154.77 105.89L153.34 102.09L152.71 100.86L152.41 100.41L151.84 99.62L151.81 99.61zM131.49 101.54L128.62 102.46L127.24 102.98L124.53 104.05L124.92 103.87L128.24 102.58L129.92 101.97L132.46 101.24zM149.02 98.68L149.94 98.83L150.31 98.98L149.9 98.83L148.28 98.64L147.27 98.65L145.56 98.71L146.14 98.63L147.12 98.5zM473.71 94.52L474 95.44L474 95.87L473.71 96.54L473 97L472.72 97L472.29 96.72L472.11 96.55L472 96.06L472 95.8L472.29 95.21L473 94.5L473.27 94.33zM462.01 72.11L464.35 72.37L465.26 72.48L466.87 72.76L467.63 72.9L468.98 73.26L470.28 73.64L472.32 74.77L473.27 75.42L474.89 77.27L475.28 77.79L476.06 79L477.24 81.12L478.04 82.66L479.07 85.21L479.28 85.81L479.56 86.85L479.68 87.34L479.76 88.18L479.78 88.57L479.68 89.2L479.6 89.48L479.31 89.88L479.14 90.06L478.65 90.22L478.38 90.27L477.7 90.19L477.36 90.12L476.9 89.96L476.71 89.86L476.53 89.63L476.47 89.5L476.55 89.17L476.96 88.55L477.35 88.08L477.45 87.28L476.57 86.06L476.17 85.73L475.7 84.72L475.65 83.18L475.75 82.87L475.85 82.47L475.88 82.31L475.86 82.18L475.83 82.14L475.66 82.28L475.27 82.77L475.11 83L474.69 83.2L474.48 83.26L474 83.18L473.51 83.03L472.52 82.1L472.06 81.56L471.42 80.19L471.25 78.13L471.38 77.66L471.1 76.86L470.87 76.48L469.85 75.85L469.24 75.55L467.4 75.07L463.68 74.48L463.18 74.42L462.05 73.96L460.68 73L460.45 72.75L460.31 72.41L460.31 72.26L460.71 72.12L460.98 72.07zM492.18 61.23L493.23 61.83L495.36 63.57L498.21 66.09L495.47 70.04L494.71 71.14L493.38 72.6L493.36 72.62L493.9 71.9L494.35 71.01L495.11 69.4L495.36 68.76L495.35 68.62L495.23 68.44L495.04 68.49L494.55 68.68L494.17 68.88L492.05 69.45L490.19 69.65L489.31 69.62L486.12 69.5L488.23 71.75L489.57 73.06L490.13 73.41L491.08 73.85L490.85 73.91L489.49 73.56L488.77 73.28L487.09 72.1L486.19 71.41L485.1 69.93L484.67 69.18L484.52 67.64L484.56 66.88L485.36 65.38L487.61 63.25L488.11 62.9L488.96 62.34L489.36 62.08L490.03 61.69L490.68 61.35L491.68 61.21zM507.58 64.34L507.79 64.48L507.93 65.1L507.65 66.46L507.47 66.95L506.51 67.57L505.97 67.82L504.65 67.96L504 67.97L502.8 67.62L502.26 67.39L501.66 66.55L501.47 66.06L501.6 65.6L502.56 65.66L502.97 65.82L504.04 65.69L505.54 64.97L505.99 64.6L506.74 64.27L507.09 64.17zM491.04 50.63L491.26 50.69L491.62 51.07L491.79 51.3L492.07 52.05L492.46 53.62L492.64 54.58L493.28 56.22L493.45 56.58L493.81 57.12L494.34 57.58L494.59 57.67L495.09 58.43L495.33 58.86L495.69 59.93L495.85 60.46L495.94 61.36L495.62 62L495.59 62L495.32 61.78L495.16 61.64L494.68 61.19L494.16 60.69L492.76 59.25L491.94 58.39L490.7 56.57L490.16 55.67L489.54 53.98L489.31 53.18L489.37 51.89L489.43 51.61L489.7 51.16L490.33 50.7L490.59 50.6zM501.85 52.52L502.42 52.84L503.7 53.76L504.32 54.24L505.41 55.25L506.37 56.53L506.51 56.9L506.64 57.47L506.68 57.73L506.61 58.08L506.51 58.38L505.85 58.37L505.46 58.26L504.39 57.48L503.82 56.99L502.56 55.49L502.19 55.01L501.57 54.14L501.28 53.72L500.85 53.03L500.66 52.71L500.47 52.28L500.48 52L500.79 52zM121.5 57.98L120.35 57.5L115.81 56.31L120.35 57.5z" stroke="none" fill="#EEC291" fill-rule="nonzero" />
        <path d="M101.89 213.5L101.05 213.05L99.66 211.64L99.02 210.87L98.07 208.96L97.66 207.97L97.23 205.74L97.25 202.23L97.28 201.97L97.47 201.16L97.59 200.7L97.94 199.52L98.13 198.89L98.6 197.41L98.85 196.63L99.44 194.9L100.06 193.11L101.55 189.01L104.02 182.5L104.89 180.3L106.76 175.5L107.7 173.08L109.57 168.26L110.48 165.91L112.12 161.65L112.51 160.64L113.2 158.84L114.09 156.5L114.49 155.43L115.22 153.59L115.57 152.71L116.22 151.18L116.86 149.73L118.07 147.53L118.68 146.5L120.07 144.78L122.69 142.2L124.08 140.96L127.03 138.61L128.53 137.46L131.65 135.31L133.23 134.27L136.46 132.37L138.08 131.45L141.33 129.82L142.96 129.05L146.18 127.73L147.78 127.11L150.89 126.13L152.42 125.68L155.35 125.08L159.48 124.63L160.39 124.6L161.65 124.66L162.22 124.73L163.01 125.16L163.38 125.45L164.01 126.49L165.09 129L165.21 129.31L165.64 130.39L165.88 131.01L166.52 132.64L166.87 133.52L167.7 135.62L168.13 136.73L169.12 139.23L169.63 140.52L170.73 143.33L171.3 144.77L172.5 147.83L176.31 157.5L177.61 160.8L180.31 167.67L181.65 171.08L184.22 177.61L184.84 179.18L186.01 182.14L186.57 183.58L187.6 186.19L188.09 187.44L188.94 189.61L189.99 192.26L190.39 193.29L191.09 195.13L191.43 196.01L191.99 197.58L192.52 199.09L193.19 201.44L193.47 202.52L193.69 204.23L193.59 206.35L193.37 207.57L192.4 209.64L191.84 210.62L190.23 212.17L189.35 212.88L187.13 213.89L183.18 214.76L182.09 214.86L180.48 214.92L179.75 214.91L178.6 214.67L178.06 214.51L177.04 213.87L175.3 212.36L174.83 211.91L173.78 210.5L173.25 209.71L172.11 207.69L171.54 206.61L170.35 204.07L168.56 199.75L164.82 190L144.99 190L125.16 190L121.43 199.75L120.85 201.27L119.78 203.89L119.25 205.13L118.25 207.25L117.76 208.25L116.8 209.91L116.32 210.68L115.36 211.92L114.87 212.5L113.87 213.37L113.36 213.76L112.28 214.31L111.73 214.55L110.53 214.82L108.56 214.96L107.45 214.95L104.93 214.51L104.32 214.38L103.22 214.05L102.7 213.88L101.89 213.5zM157.53 169.75L157.01 168.16L155.82 164.69L155.2 162.93L153.87 159.27L153.2 157.44L151.83 153.82L151.15 152.03L149.82 148.65L149.16 147.01L147.96 144.09L147.38 142.71L146.39 140.46L145.93 139.45L145.23 138.09L145.08 137.82L144.85 137.48L144.62 137.29L144.54 137.32L144.27 137.72L144.12 137.97L143.72 138.78L143.5 139.23L142.99 140.39L142.73 141.01L142.13 142.46L141.51 143.97L140.11 147.61L139.39 149.49L137.92 153.51L137.19 155.52L135.82 159.44L135.16 161.34L134.07 164.69L133.82 165.47L133.4 166.83L133.21 167.48L132.93 168.53L132.8 169.01L132.67 169.7L132.66 170.25L132.69 170.3L133 170.4L133.2 170.45L133.82 170.54L134.5 170.63L136.63 170.78L137.79 170.85L140.67 170.94L145.53 171L146.71 171L148.78 170.99L149.76 170.98L151.45 170.94L152.24 170.92L153.57 170.86L154.2 170.82L155.2 170.73L155.66 170.68L156.37 170.57L156.69 170.5L157.12 170.35L157.49 170.19zM225 212.28L224.09 211.94L222.44 211.05L221.64 210.57L220.21 209.4L219.52 208.78L218.32 207.35L217.75 206.6L216.77 204.89L216.31 204L215.56 202.03L215.21 201.01L214.69 198.77L214.46 197.62L214.17 195.12L214 191.08L214 189.95L214.05 187.95L214.08 186.99L214.21 185.28L214.36 183.64L214.97 181.01L215.33 179.78L216.44 177.66L218.81 174.62L219.47 173.92L220.74 172.73L221.38 172.17L222.7 171.24L223.38 170.8L224.87 170.08L225.65 169.75L227.42 169.23L228.35 169L230.52 168.65L231.66 168.49L234.32 168.28L235.73 168.19L239.01 168.08L244.75 168.02L260 168L260 165.19L260 164.45L259.91 163.2L259.84 162.61L259.55 161.65L259.37 161.2L258.77 160.48L258.43 160.15L257.45 159.64L256.91 159.4L255.44 159.05L254.65 158.89L252.61 158.67L251.52 158.57L248.82 158.44L243.92 158.29L241.94 158.24L238.59 158.12L237.01 158.05L234.42 157.85L233.2 157.74L231.27 157.42L230.37 157.25L229 156.79L228.38 156.53L227.48 155.88L227.08 155.52L226.57 154.64L226.35 154.17L226.12 153.02L226 150.96L226 150.11L226.12 148.82L226.2 148.23L226.58 147.32L226.81 146.89L227.57 146.13L229.25 144.93L229.99 144.46L231.4 143.84L232.16 143.57L234.21 143.27L234.8 143.21L236.23 143.14L237 143.12L238.85 143.11L239.84 143.11L242.23 143.14L246.5 143.24L248.39 143.29L251.62 143.41L253.15 143.47L255.73 143.66L256.96 143.76L259.02 144.04L260 144.19L261.65 144.6L262.44 144.82L263.8 145.4L264.46 145.7L265.65 146.47L266.23 146.88L267.37 147.88L269.13 149.66L269.78 150.37L270.86 151.6L271.36 152.21L272.18 153.44L272.55 154.08L273.14 155.55L273.41 156.33L273.82 158.28L274.01 159.34L274.28 162.02L274.35 162.75L274.45 164.38L274.5 165.23L274.59 167.13L274.63 168.12L274.71 170.32L274.74 171.46L274.81 173.98L274.84 175.29L274.9 178.18L275 182.94L275.04 184.99L275.09 188.77L275.12 190.61L275.14 193.96L275.15 195.58L275.15 198.49L275.14 199.88L275.11 202.33L275.08 203.5L275.02 205.47L274.98 206.4L274.88 207.89L274.83 208.57L274.7 209.55L274.48 210.44L274.3 210.8L273.68 211.4L273.34 211.69L272.45 212.14L271.51 212.55L269.16 212.91L267.97 213L265.62 212.66L265.06 212.54L264.07 212.14L262.82 211.34L262.35 210.91L261.65 210.38L261.32 210.17L260.7 210.06L260.37 210.05L259.56 210.36L257.84 211.28L257.22 211.63L255.76 212.14L254.94 212.37L252.71 212.66L252.08 212.72L250.58 212.8L249.79 212.84L247.93 212.89L246.95 212.91L244.66 212.93L240.67 212.92L238.72 212.91L235.05 212.85L233.28 212.81L230.22 212.7L229.51 212.67L228.27 212.61L227.68 212.57L226.7 212.5L226.25 212.47L225.59 212.39L225.3 212.36zM254.8 195.1L255.43 194.7L256.46 194.04L256.95 193.72L257.73 193.17L258.45 192.63L259.28 191.72L259.61 191.26L259.84 190.22L259.8 188.13L259.5 184.5L244.5 184.5L229.5 184.5L229.2 190.76L229.17 191.48L229.12 192.68L229.11 193.25L229.1 194.19L229.11 195.06L229.31 196.2L229.45 196.69L229.96 197.3L231.2 198L231.52 198.13L232.73 198.36L233.41 198.46L235.17 198.61L241.5 198.7L242.39 198.67L243.91 198.6L244.64 198.56L245.91 198.45L247.12 198.33L249.05 197.91L249.97 197.66L251.74 196.87L252.65 196.41zM405.93 212.18L405.12 211.83L403.5 210.76L402.69 210.18L401.15 208.72L400.4 207.95L399.02 206.16L397.22 203.22L396.78 202.38L396.13 200.76L395.84 199.95L395.45 198.18L395.29 197.25L395.1 195.04L395 190.93L395 189.79L395.09 187.71L395.15 186.7L395.37 184.85L395.62 183.04L396.57 180L397.12 178.56L398.73 176.06L401.99 172.66L403.12 171.71L405.55 170.32L406.21 170.02L407.66 169.51L408.42 169.28L410.17 168.9L411.08 168.73L413.2 168.47L414.32 168.36L416.91 168.2L418.27 168.13L421.42 168.05L426.88 168.01L441.26 168L440.67 164.34L440.5 163.33L439.93 161.43L439.78 161L439.46 160.3L438.99 159.59L438.91 159.51L438.5 159.35L438.25 159.27L437.53 159.12L437.14 159.05L436.13 158.91L435.59 158.84L434.33 158.71L433.01 158.59L429.7 158.39L423.96 158.17L422.34 158.14L419.63 158.06L418.36 158.03L416.28 157.94L415.31 157.9L413.75 157.78L413.03 157.72L411.9 157.57L411.38 157.49L410.59 157.28L410.23 157.17L409.69 156.89L408.5 155.7L407.96 154.92L407.33 153.1L407.09 152.16L407.05 150.23L407.11 149.28L407.65 147.53L409.1 145.4L409.54 145.01L410.61 144.43L411.21 144.16L412.92 143.8L413.41 143.71L414.57 143.58L415.19 143.52L416.66 143.41L417.43 143.36L419.25 143.28L422.43 143.17L424.78 143.1L428.97 143.11L430.99 143.14L434.56 143.37L436.28 143.51L439.3 143.97L440.74 144.23L443.25 144.95L444.45 145.34L446.52 146.33L447.51 146.86L449.19 148.14L449.99 148.81L451.35 150.4L453.07 153.15L453.37 153.73L453.93 155.43L454.21 156.36L454.72 158.7L454.97 159.94L455.41 162.82L455.97 167.65L456.13 169.37L456.4 173.3L456.52 175.32L456.71 179.66L456.87 184.05L456.97 192.93L456.97 195.07L456.91 199.04L456.88 200.95L456.74 204.26L456.66 205.81L456.44 208.19L456.38 208.72L456.25 209.55L456.02 210.43L455.81 211L455.36 211.79L455.11 212.13L454.41 212.56L454.02 212.74L452.86 212.92L450.35 213L448.83 213L446.37 212.56L445.82 212.41L444.88 212.02L443.75 211.28L443.3 210.87L442.62 210.36L442.3 210.15L441.69 210.05L441.36 210.05L440.56 210.36L438.84 211.28L438.22 211.63L436.76 212.14L435.94 212.37L433.71 212.66L433.07 212.72L431.58 212.81L430.79 212.85L428.93 212.9L427.95 212.92L425.66 212.93L421.67 212.93L419.72 212.92L416.04 212.85L414.27 212.81L411.2 212.68L410.49 212.65L409.24 212.57L408.64 212.53L407.66 212.45L407.21 212.41L406.54 212.32L406.25 212.27zM434.51 195.99L435.36 195.51L436.78 194.66L437.45 194.25L438.55 193.52L439.06 193.16L439.86 192.51L440.23 192.18L440.77 191.56L441.25 190.93L441.58 189.6L441.37 187.12L440.74 183.95L425.62 184.22L410.5 184.5L410.19 190.47L410.14 191.44L410.13 193.06L410.14 193.82L410.29 195.07L410.39 195.65L410.77 196.57L411 196.99L411.67 197.64L412.05 197.93L413.09 198.34L413.65 198.52L415.1 198.76L415.88 198.85L417.81 198.95L421.32 199L422.19 199L423.7 198.98L424.42 198.96L425.68 198.9L426.88 198.83L428.8 198.49L429.72 198.28L431.48 197.58L432.39 197.17zM494.39 211.1L493.15 210.34L491.02 208.27L490.01 207.16L488.35 204.5L487.58 203.11L486.42 200.02L485.91 198.44L485.28 195.09L485.03 193.4L484.95 189.95L484.97 188.22L485.46 184.84L485.78 183.17L486.87 180.02L489.2 175.73L489.71 175.01L490.77 173.78L491.32 173.2L492.54 172.2L493.18 171.73L494.65 170.95L495.42 170.59L497.24 169.99L498.19 169.72L500.45 169.28L501.64 169.08L504.42 168.77L505.89 168.63L509.31 168.42L515.25 168.19L531 167.76L530.98 164.63L530.98 163.94L530.91 162.77L530.87 162.23L530.66 161.33L530.54 160.91L530.14 160.25L529.91 159.94L529.26 159.48L528.89 159.27L527.92 158.97L527.39 158.83L526.04 158.66L525.31 158.58L523.52 158.5L520.29 158.45L518.95 158.44L516.5 158.42L515.32 158.41L513.17 158.38L512.13 158.36L510.26 158.31L509.36 158.29L507.75 158.21L506.21 158.13L503.81 157.86L502.71 157.7L501.1 157.23L500.38 156.97L499.39 156.26L498.97 155.87L498.47 154.85L498.26 154.29L498.08 152.91L498 150.38L498 149.34L498.09 147.88L498.16 147.24L498.52 146.36L498.76 145.96L499.57 145.36L501.47 144.45L501.98 144.24L503.62 143.88L504.53 143.71L506.82 143.45L508.03 143.33L510.76 143.17L512.16 143.09L515.14 143.03L518.13 142.99L523.95 143.21L525.32 143.29L527.77 143.54L530.78 144.04L532.35 144.4L535.14 145.48L536.48 146.08L538.81 147.62L539.92 148.46L541.78 150.46L544.03 153.98L544.54 155L545.25 157.11L545.41 157.7L545.68 159.09L545.81 159.84L546.03 161.67L546.13 162.66L546.32 165.1L546.41 166.41L546.58 169.62L546.66 171.33L546.83 175.47L546.87 176.57L546.96 178.98L547.1 182.91L547.17 184.7L547.28 187.95L547.33 189.53L547.41 192.39L547.45 193.77L547.51 196.25L547.53 197.45L547.55 199.59L547.56 200.61L547.54 202.43L547.52 203.3L547.45 204.82L547.37 206.27L547.05 208.41L546.86 209.37L546.28 210.68L545.96 211.26L545.09 211.96L544.61 212.25L543.39 212.56L541.14 212.81L540.38 212.87L539.06 212.85L538.44 212.83L537.37 212.64L536.86 212.53L535.99 212.16L534.88 211.39L534.42 210.98L533.73 210.47L533.39 210.26L532.72 210.15L532.36 210.15L531.43 210.44L529.44 211.33L528.75 211.66L527.08 212.15L526.17 212.36L523.75 212.66L523.08 212.72L521.53 212.82L520.72 212.86L518.84 212.92L517.85 212.95L515.59 212.98L511.72 213L510.19 213L507.58 212.98L506.34 212.97L504.24 212.93L503.25 212.9L501.58 212.82L500.79 212.78L499.48 212.65L498.24 212.52L496.51 212.08L495.71 211.82zM526.12 195.43L527.33 194.69L529.08 193.52L529.85 192.97L530.87 192.03L531.3 191.57L531.75 190.67L531.98 189.18L531.98 188.54L531.92 187.49L531.88 187L531.65 186.21L531.5 185.85L530.98 185.29L530.68 185.04L529.77 184.67L529.25 184.51L527.82 184.31L527.03 184.23L524.98 184.15L523.86 184.13L521.07 184.14L515.92 184.22L501.5 184.5L501.19 190.47L501.14 191.44L501.13 193.06L501.14 193.82L501.29 195.07L501.39 195.65L501.77 196.57L502 196.99L502.67 197.64L503.05 197.93L504.08 198.34L504.65 198.52L506.1 198.76L506.88 198.85L508.81 198.95L512.31 199L513.23 199L514.78 198.98L515.52 198.97L516.79 198.91L518.01 198.83L519.92 198.45L520.85 198.21L522.7 197.38L523.19 197.13L524.27 196.53L524.83 196.21zM114.13 133.14L113.63 132.61L112.44 131.3L111.83 130.62L110.53 129.15L109.88 128.42L108.62 126.96L106.97 124.99L103.43 120.7L98.13 121.97L96.57 122.34L93.61 122.77L92.16 122.93L89.43 122.93L88.1 122.87L85.59 122.43L84.37 122.15L82.08 121.27L80.97 120.78L78.89 119.46L77.88 118.74L76.02 116.97L75.11 116.03L73.45 113.82L71.17 110L70.8 109.28L70.19 108.04L69.9 107.45L69.43 106.4L69 105.39L68.5 103.71L68.31 102.89L68.23 101.23L68.43 98.25L68.57 96.98L69.14 94.53L69.48 93.32L70.4 91.04L70.9 89.92L72.15 87.84L72.81 86.82L74.33 84.98L75.13 84.09L76.91 82.52L77.83 81.78L79.82 80.53L80.84 79.94L83.02 79.04L86.45 78.14L87.18 78.01L88.33 77.71L88.86 77.55L89.64 77.15L89.99 76.94L90.46 76.42L90.85 75.47L91.16 73.78L92.36 70.6L93.04 69.06L94.87 66.24L95.85 64.89L98.19 62.52L99.41 61.4L102.14 59.55L103.54 58.7L106.52 57.45L108.03 56.91L111.14 56.33L112.7 56.13L115.81 56.31L120.35 57.5L121.58 58.02L123.4 58.62L124.23 58.84L125.58 58.81L126.24 58.71L127.55 57.98L129.97 56.03L130.93 55.17L132.99 53.77L134.05 53.13L136.26 52.15L137.39 51.72L139.72 51.18L140.89 50.96L143.29 50.83L144.5 50.83L146.93 51.13L148.15 51.34L150.57 52.07L151.78 52.49L154.16 53.65L157.63 55.87L159.06 56.94L161.45 59.36L162.56 60.61L164.3 63.3L165.09 64.68L166.18 67.57L166.64 69.03L167.06 72.02L167.19 73.52L166.95 76.53L166.74 78.02L165.82 80.95L165.27 82.4L163.67 85.16L160.48 89.03L155.92 93.5L144.51 94.57L143.28 94.69L141.13 94.91L140.1 95.02L138.31 95.26L136.58 95.5L133.82 96.09L132.49 96.42L129.99 97.34L125.78 99.26L124.06 100.12L120.79 102.07L119.24 103.05L116.74 104.91L116.19 105.35L115.33 106.14L114.95 106.51L114.48 107.11L114.3 107.39L114.28 107.76L114.85 108L115.02 108L115.89 107.73L116.4 107.56L117.82 107.01L118.59 106.71L120.38 105.94L123.28 104.64L124.53 104.05L127.24 102.98L128.62 102.46L131.49 101.54L134.37 100.66L140.03 99.45L141.39 99.2L143.91 98.87L145.13 98.73L147.27 98.65L148.28 98.64L149.9 98.83L151.59 99.45L151.84 99.62L152.41 100.41L152.71 100.86L153.34 102.09L155.04 106.62L155.5 108.24L156.44 111.26L156.66 111.95L157.03 113.06L157.44 114.18L157.59 114.52L157.58 115.28L157.54 115.67L157.18 116.5L156.97 116.92L156.3 117.79L155.94 118.22L155 119.09L154.01 119.95L151.39 121.53L146.85 123.36L146.08 123.59L144.25 124.19L143.3 124.51L141.31 125.24L140.32 125.61L138.42 126.36L135.92 127.44L135.2 127.78L133.81 128.36L133.13 128.62L131.95 129.03L131.4 129.2L130.55 129.39L129.82 129.39L129.59 129.25L129.24 129.29L129 129.77L129 129.91L128.63 130.41L128.4 130.69L127.66 131.38L126.84 132.11L124.58 133.81L123.42 134.65L121.21 136.03L120.7 136.33L119.86 136.74L118.97 137L118.8 137L118.21 136.7L117.89 136.5L117.05 135.87L116.17 135.17zM488.23 71.75L486.12 69.5L489.31 69.62L490.19 69.65L492.05 69.45L494.17 68.88L494.55 68.68L495.04 68.49L495.23 68.44L495.35 68.62L495.36 68.76L495.11 69.4L494.35 71.01L493.9 71.9L493.04 73.06L492.6 73.53L491.68 73.85L491.21 73.91L490.13 73.41L489.57 73.06z" stroke="none" fill="#FBFBF9" fill-rule="nonzero" />
	</g>
</g>
</svg>
